<?xml version="1.0" encoding="UTF-8"?>
<svg id="_레이어_2" data-name="레이어 2" xmlns="http://www.w3.org/2000/svg" viewBox="0 0 153.29 87.9">
  <defs>
    <style>
      .cls-1 {
        fill: #73d2ef;
      }

      .cls-1, .cls-2, .cls-3, .cls-4 {
        stroke-width: 0px;
      }

      .cls-2 {
        fill: #279dc1;
      }

      .cls-3 {
        fill: #2297b2;
      }

      .cls-4 {
        fill: #4dafd6;
      }
    </style>
  </defs>
  <g id="OBJECTS">
    <g>
      <path class="cls-2" d="m153.29,66.97c0,11.56-9.28,20.93-20.72,20.93H20.71c-11.44,0-20.71-9.37-20.71-20.93V20.93C0,9.37,9.27,0,20.71,0h111.86c11.44,0,20.72,9.37,20.72,20.93v46.04Z"/>
      <path class="cls-4" d="m132.57,0H20.71C9.27,0,0,9.37,0,20.93v22.32c0,11.56,9.27,20.93,20.71,20.93h111.86c11.44,0,20.72-9.37,20.72-20.93v-22.32c0-11.56-9.28-20.93-20.72-20.93Z"/>
      <path class="cls-1" d="m32.97,32.09c0,2.31-1.85,4.19-4.14,4.19h-14.85c-2.29,0-4.14-1.87-4.14-4.19h0c0-2.31,1.85-4.19,4.14-4.19h14.85c2.29,0,4.14,1.88,4.14,4.19h0Z"/>
      <path class="cls-1" d="m51.61,51.62c0,2.31-1.85,4.19-4.14,4.19h-14.84c-2.29,0-4.14-1.87-4.14-4.19h0c0-2.31,1.86-4.19,4.14-4.19h14.84c2.29,0,4.14,1.88,4.14,4.19h0Z"/>
      <path class="cls-3" d="m108.32,36.28c0,2.31-1.86,4.19-4.14,4.19h-14.84c-2.29,0-4.14-1.87-4.14-4.19h0c0-2.31,1.85-4.19,4.14-4.19h14.84c2.29,0,4.14,1.87,4.14,4.19h0Z"/>
      <path class="cls-3" d="m141.64,40.46c0,2.31-1.18,4.18-2.63,4.18h-9.42c-1.45,0-2.63-1.87-2.63-4.18h0c0-2.31,1.18-4.19,2.63-4.19h9.42c1.45,0,2.63,1.87,2.63,4.19h0Z"/>
      <path class="cls-1" d="m56.96,20.93c0,2.31-1.36,4.19-3.03,4.19h-10.86c-1.67,0-3.03-1.87-3.03-4.19h0c0-2.31,1.36-4.19,3.03-4.19h10.86c1.67,0,3.03,1.88,3.03,4.19h0Z"/>
    </g>
  </g>
</svg>