<?xml version="1.0" encoding="UTF-8"?>
<svg id="_레이어_2" data-name="레이어 2" xmlns="http://www.w3.org/2000/svg" viewBox="0 0 104.97 62.88">
  <defs>
    <style>
      .cls-1 {
        fill: #73d2ef;
      }

      .cls-1, .cls-2, .cls-3 {
        stroke-width: 0px;
      }

      .cls-2 {
        fill: #279dc1;
      }

      .cls-3 {
        fill: #4dafd6;
      }
    </style>
  </defs>
  <g id="OBJECTS">
    <g>
      <path class="cls-2" d="m104.97,40.15c0,12.55-10.07,22.73-22.49,22.73H22.49C10.07,62.88,0,52.7,0,40.15v-17.42C0,10.17,10.07,0,22.49,0h59.98c12.42,0,22.49,10.17,22.49,22.73v17.42Z"/>
      <path class="cls-3" d="m22.49,0C10.32,0,.42,9.77.02,21.97c.39,12.2,10.3,21.97,22.47,21.97h59.98c12.17,0,22.08-9.77,22.47-21.97-.4-12.2-10.3-21.97-22.47-21.97H22.49Z"/>
      <path class="cls-1" d="m59.05,25.38c0,2.51-2.01,4.54-4.5,4.54h-16.12c-2.48,0-4.5-2.04-4.5-4.54h0c0-2.51,2.01-4.54,4.5-4.54h16.12c2.49,0,4.5,2.03,4.5,4.54h0Z"/>
      <path class="cls-1" d="m39.18,11.36c0,2.51-1.47,4.55-3.29,4.55h-11.79c-1.82,0-3.29-2.04-3.29-4.55h0c0-2.51,1.47-4.55,3.29-4.55h11.79c1.82,0,3.29,2.04,3.29,4.55h0Z"/>
    </g>
  </g>
</svg>