<?xml version="1.0" encoding="UTF-8"?>
<svg id="_레이어_2" data-name="레이어 2" xmlns="http://www.w3.org/2000/svg" viewBox="0 0 269.66 98.79">
  <defs>
    <style>
      .cls-1 {
        fill: #73d2ef;
      }

      .cls-1, .cls-2, .cls-3, .cls-4, .cls-5, .cls-6 {
        stroke-width: 0px;
      }

      .cls-2 {
        fill: #279dc1;
      }

      .cls-3 {
        fill: #ffe236;
      }

      .cls-4 {
        fill: #e8401f;
      }

      .cls-5 {
        fill: #65ad18;
      }

      .cls-6 {
        fill: #7fc62e;
      }
    </style>
  </defs>
  <g id="OBJECTS">
    <g>
      <g>
        <g>
          <path class="cls-5" d="m128.78,70.34c-4.41,9.54-4.13,19.04.61,21.24,4.75,2.19,12.17-3.76,16.57-13.29,4.41-9.54,4.13-19.04-.62-21.24-4.75-2.19-12.16,3.76-16.57,13.29Z"/>
          <rect class="cls-5" x="121.59" y="37.44" width="5.18" height="56.5"/>
        </g>
        <path class="cls-4" d="m142.07,9.02c0-.09.01-.18.01-.28,0-3.48-2.68-6.31-5.97-6.31s-5.98,2.82-5.98,6.31c0,.09,0,.18.01.28h-.03c0-.09.01-.18.01-.28,0-3.48-2.68-6.31-5.98-6.31s-5.98,2.82-5.98,6.31c0,.09,0,.18.01.28h-.03c0-.09.01-.18.01-.28,0-3.48-2.68-6.31-5.97-6.31s-5.98,2.82-5.98,6.31c0,.09,0,.18.01.28h-.05c.26,17.04,8.2,30.72,17.96,30.72s17.7-13.67,17.96-30.72h-.05Z"/>
      </g>
      <g>
        <path class="cls-5" d="m25.84,70.34c4.41,9.54,4.13,19.04-.62,21.24-4.75,2.19-12.16-3.76-16.57-13.29-4.4-9.54-4.13-19.04.62-21.24,4.74-2.19,12.16,3.76,16.57,13.29Z"/>
        <g>
          <rect class="cls-5" x="27.86" y="37.44" width="5.18" height="56.5"/>
          <g>
            <g>
              <circle class="cls-1" cx="17.25" cy="21.91" r="8.54" transform="translate(-.6 .49) rotate(-1.59)"/>
              <path class="cls-1" d="m30.62,26.39c4.71,0,8.54,3.82,8.54,8.54,0,4.72-3.82,8.54-8.54,8.54s-8.54-3.82-8.54-8.54,3.82-8.54,8.54-8.54Z"/>
              <path class="cls-1" d="m35.1,21.56c0-4.72,3.82-8.54,8.54-8.54,4.71,0,8.54,3.82,8.54,8.54,0,4.72-3.82,8.54-8.54,8.54s-8.54-3.82-8.54-8.54Z"/>
              <path class="cls-1" d="m30.27,17.08c-4.72,0-8.54-3.82-8.54-8.54C21.72,3.82,25.55,0,30.26,0c4.72,0,8.54,3.82,8.54,8.54s-3.82,8.54-8.54,8.54Z"/>
            </g>
            <path class="cls-3" d="m30.44,30.27c-4.72,0-8.54-3.82-8.54-8.54,0-4.71,3.82-8.54,8.54-8.54,4.72,0,8.54,3.82,8.54,8.54s-3.82,8.54-8.54,8.54Z"/>
          </g>
        </g>
      </g>
      <g>
        <path class="cls-5" d="m242.21,70.34c-4.41,9.54-4.13,19.04.62,21.24,4.75,2.19,12.16-3.76,16.57-13.29,4.4-9.54,4.13-19.04-.62-21.24-4.74-2.19-12.16,3.76-16.57,13.29Z"/>
        <g>
          <rect class="cls-5" x="235.02" y="37.44" width="5.18" height="56.5"/>
          <g>
            <g>
              <circle class="cls-2" cx="250.8" cy="21.91" r="8.54" transform="translate(222.92 272.12) rotate(-88.64)"/>
              <path class="cls-2" d="m237.43,26.39c-4.71,0-8.54,3.82-8.54,8.54,0,4.72,3.82,8.54,8.54,8.54s8.54-3.82,8.54-8.54-3.82-8.54-8.54-8.54Z"/>
              <path class="cls-2" d="m232.95,21.56c0-4.72-3.82-8.54-8.54-8.54-4.71,0-8.54,3.82-8.54,8.54,0,4.72,3.82,8.54,8.54,8.54s8.54-3.82,8.54-8.54Z"/>
              <path class="cls-2" d="m237.78,17.08c4.72,0,8.54-3.82,8.54-8.54C246.32,3.82,242.5,0,237.78,0c-4.72,0-8.54,3.82-8.54,8.54s3.82,8.54,8.54,8.54Z"/>
            </g>
            <path class="cls-3" d="m237.6,30.27c4.72,0,8.54-3.82,8.54-8.54,0-4.71-3.82-8.54-8.54-8.54-4.72,0-8.54,3.82-8.54,8.54s3.82,8.54,8.54,8.54Z"/>
          </g>
        </g>
      </g>
      <g>
        <g>
          <path class="cls-5" d="m75.19,70.34c4.41,9.54,4.13,19.04-.62,21.24-4.74,2.19-12.16-3.76-16.57-13.29-4.41-9.54-4.13-19.04.62-21.24,4.74-2.19,12.16,3.76,16.57,13.29Z"/>
          <path class="cls-5" d="m83.4,70.34c-4.41,9.54-4.13,19.04.62,21.24,4.75,2.19,12.16-3.76,16.57-13.29,4.4-9.54,4.13-19.04-.62-21.24-4.74-2.19-12.16,3.76-16.57,13.29Z"/>
        </g>
        <g>
          <rect class="cls-5" x="76.71" y="44.21" width="5.18" height="49.73"/>
          <g>
            <g>
              <circle class="cls-1" cx="66.1" cy="39.75" r="8.54" transform="translate(-1.08 1.85) rotate(-1.59)"/>
              <path class="cls-1" d="m79.47,44.23c4.71,0,8.54,3.82,8.54,8.54,0,4.72-3.82,8.54-8.54,8.54-4.72,0-8.54-3.82-8.54-8.54s3.82-8.54,8.54-8.54Z"/>
              <path class="cls-1" d="m83.95,39.4c0-4.72,3.82-8.54,8.54-8.54,4.72,0,8.54,3.82,8.54,8.54s-3.82,8.54-8.54,8.54-8.54-3.82-8.54-8.54Z"/>
              <path class="cls-1" d="m79.12,34.91c-4.72,0-8.54-3.82-8.54-8.54,0-4.71,3.82-8.54,8.54-8.54,4.72,0,8.54,3.82,8.54,8.54s-3.82,8.54-8.54,8.54Z"/>
            </g>
            <path class="cls-3" d="m79.29,48.11c-4.72,0-8.54-3.82-8.54-8.54,0-4.71,3.82-8.54,8.54-8.54,4.71,0,8.54,3.82,8.54,8.54s-3.82,8.54-8.54,8.54Z"/>
          </g>
        </g>
      </g>
      <g>
        <g>
          <path class="cls-5" d="m180.69,70.34c4.41,9.54,4.13,19.04-.62,21.24-4.74,2.19-12.16-3.76-16.57-13.29-4.41-9.54-4.13-19.04.62-21.24,4.74-2.19,12.16,3.76,16.57,13.29Z"/>
          <path class="cls-5" d="m188.9,70.34c-4.41,9.54-4.13,19.04.62,21.24,4.75,2.19,12.16-3.76,16.57-13.29,4.4-9.54,4.13-19.04-.62-21.24-4.74-2.19-12.16,3.76-16.57,13.29Z"/>
        </g>
        <g>
          <rect class="cls-5" x="182.21" y="44.21" width="5.18" height="49.73"/>
          <path class="cls-3" d="m201.73,20.64c0-.09.01-.18.01-.28,0-3.48-2.68-6.31-5.97-6.31s-5.98,2.82-5.98,6.31c0,.09,0,.18.01.28h-.03c0-.09.01-.18.01-.28,0-3.48-2.68-6.31-5.98-6.31s-5.98,2.82-5.98,6.31c0,.09,0,.18.01.28h-.03c0-.09.01-.18.01-.28,0-3.48-2.68-6.31-5.97-6.31s-5.98,2.82-5.98,6.31c0,.09,0,.18.01.28h-.05c.26,17.04,8.2,30.72,17.96,30.72s17.7-13.67,17.96-30.72h-.05Z"/>
        </g>
      </g>
      <rect class="cls-6" y="87.42" width="269.66" height="11.36"/>
    </g>
  </g>
</svg>