<?xml version="1.0" encoding="UTF-8"?>
<svg id="_레이어_2" data-name="레이어 2" xmlns="http://www.w3.org/2000/svg" viewBox="0 0 269.66 48.82">
  <defs>
    <style>
      .cls-1 {
        fill: #65ad18;
      }

      .cls-1, .cls-2, .cls-3 {
        stroke-width: 0px;
      }

      .cls-2 {
        fill: #4d8907;
      }

      .cls-3 {
        fill: #7fc62e;
      }
    </style>
  </defs>
  <g id="OBJECTS">
    <g>
      <g>
        <path class="cls-3" d="m33.07,38.61V12.65c0-4-3.24-7.24-7.24-7.24s-7.24,3.24-7.24,7.24v25.96h14.48Z"/>
        <path class="cls-3" d="m61.08,38.61V12.65c0-4-3.24-7.24-7.24-7.24s-7.24,3.24-7.24,7.24v25.96h14.48Z"/>
        <path class="cls-3" d="m84.96,38.61V12.65c0-4-3.24-7.24-7.24-7.24s-7.24,3.24-7.24,7.24v25.96h14.48Z"/>
        <path class="cls-1" d="m47.42,38.61v-14.05c0-4-3.24-7.24-7.24-7.24s-7.24,3.24-7.24,7.24v14.05h14.48Z"/>
        <path class="cls-3" d="m136.93,38.61V12.65c0-4-3.24-7.24-7.24-7.24s-7.24,3.24-7.24,7.24v25.96h14.48Z"/>
        <path class="cls-3" d="m166.02,38.61V12.65c0-4-3.24-7.24-7.24-7.24s-7.24,3.24-7.24,7.24v25.96h14.48Z"/>
        <path class="cls-1" d="m151.28,38.61v-14.05c0-4-3.24-7.24-7.24-7.24s-7.24,3.24-7.24,7.24v14.05h14.48Z"/>
        <path class="cls-1" d="m192.93,38.61v-14.05c0-4-3.24-7.24-7.24-7.24s-7.24,3.24-7.24,7.24v14.05h14.48Z"/>
        <path class="cls-1" d="m99.44,38.61V14.82c0-4-3.24-7.24-7.24-7.24s-7.24,3.24-7.24,7.24v23.79h14.48Z"/>
        <path class="cls-3" d="m113.92,38.61V7.24c0-4-3.24-7.24-7.24-7.24s-7.24,3.24-7.24,7.24v31.37h14.48Z"/>
        <path class="cls-3" d="m221.8,38.61V12.65c0-4-3.24-7.24-7.24-7.24s-7.24,3.24-7.24,7.24v25.96h14.48Z"/>
        <path class="cls-1" d="m236.28,38.61V14.82c0-4-3.24-7.24-7.24-7.24s-7.24,3.24-7.24,7.24v23.79h14.48Z"/>
        <path class="cls-3" d="m250.76,38.61V7.24c0-4-3.24-7.24-7.24-7.24s-7.24,3.24-7.24,7.24v31.37h14.48Z"/>
      </g>
      <rect class="cls-2" y="37.45" width="269.66" height="11.36"/>
    </g>
  </g>
</svg>