<?xml version="1.0" encoding="UTF-8"?>
<svg id="_레이어_2" data-name="레이어 2" xmlns="http://www.w3.org/2000/svg" viewBox="0 0 740.82 74.15">
  <defs>
    <style>
      .cls-1 {
        fill: #56331b;
      }

      .cls-1, .cls-2, .cls-3 {
        stroke-width: 0px;
      }

      .cls-2 {
        fill: #7fc62e;
      }

      .cls-3 {
        fill: #7c4d29;
      }
    </style>
  </defs>
  <g id="OBJECTS">
    <g>
      <rect class="cls-3" y="23.15" width="740.82" height="51"/>
      <path class="cls-1" d="m60.35,37.9c0,3.73-3.02,6.75-6.75,6.75h-13.97c-3.73,0-6.75-3.02-6.75-6.75h0c0-3.73,3.02-6.75,6.75-6.75h13.97c3.73,0,6.75,3.02,6.75,6.75h0Z"/>
      <path class="cls-1" d="m729.49,57.58c0,3.73-3.02,6.75-6.75,6.75h-13.97c-3.73,0-6.75-3.02-6.75-6.75h0c0-3.73,3.02-6.75,6.75-6.75h13.97c3.73,0,6.75,3.02,6.75,6.75h0Z"/>
      <path class="cls-1" d="m167.13,37.9c0,3.73-3.02,6.75-6.75,6.75h-13.97c-3.73,0-6.75-3.02-6.75-6.75h0c0-3.73,3.02-6.75,6.75-6.75h13.97c3.73,0,6.75,3.02,6.75,6.75h0Z"/>
      <path class="cls-1" d="m194.6,57.58c0,3.73-3.02,6.75-6.75,6.75h-13.97c-3.73,0-6.75-3.02-6.75-6.75h0c0-3.73,3.02-6.75,6.75-6.75h13.97c3.73,0,6.75,3.02,6.75,6.75h0Z"/>
      <path class="cls-1" d="m326.34,57.58c0,3.73-3.02,6.75-6.75,6.75h-13.97c-3.73,0-6.75-3.02-6.75-6.75h0c0-3.73,3.02-6.75,6.75-6.75h13.97c3.73,0,6.75,3.02,6.75,6.75h0Z"/>
      <path class="cls-1" d="m92.26,57.58c0,3.73-3.02,6.75-6.75,6.75h-25.97c-3.73,0-6.75-3.02-6.75-6.75h0c0-3.73,3.02-6.75,6.75-6.75h25.97c3.73,0,6.75,3.02,6.75,6.75h0Z"/>
      <path class="cls-1" d="m507.99,37.9c0,3.73-3.02,6.75-6.75,6.75h-13.97c-3.73,0-6.75-3.02-6.75-6.75h0c0-3.73,3.02-6.75,6.75-6.75h13.97c3.73,0,6.75,3.02,6.75,6.75h0Z"/>
      <path class="cls-1" d="m433.13,57.58c0,3.73-3.02,6.75-6.75,6.75h-25.97c-3.73,0-6.75-3.02-6.75-6.75h0c0-3.73,3.02-6.75,6.75-6.75h25.97c3.73,0,6.75,3.02,6.75,6.75h0Z"/>
      <path class="cls-1" d="m374.88,37.9c0,3.73-3.02,6.75-6.75,6.75h-25.97c-3.73,0-6.75-3.02-6.75-6.75h0c0-3.73,3.02-6.75,6.75-6.75h25.97c3.73,0,6.75,3.02,6.75,6.75h0Z"/>
      <path class="cls-1" d="m255.43,44.65c0,3.73-3.02,6.75-6.75,6.75h-25.97c-3.73,0-6.75-3.02-6.75-6.75h0c0-3.73,3.02-6.75,6.75-6.75h25.97c3.73,0,6.75,3.02,6.75,6.75h0Z"/>
      <path class="cls-1" d="m600.13,37.9c0,3.73-3.02,6.75-6.75,6.75h-13.97c-3.73,0-6.75-3.02-6.75-6.75h0c0-3.73,3.02-6.75,6.75-6.75h13.97c3.73,0,6.75,3.02,6.75,6.75h0Z"/>
      <path class="cls-1" d="m627.6,57.58c0,3.73-3.02,6.75-6.75,6.75h-13.97c-3.73,0-6.75-3.02-6.75-6.75h0c0-3.73,3.02-6.75,6.75-6.75h13.97c3.73,0,6.75,3.02,6.75,6.75h0Z"/>
      <path class="cls-1" d="m688.43,44.65c0,3.73-3.02,6.75-6.75,6.75h-25.97c-3.73,0-6.75-3.02-6.75-6.75h0c0-3.73,3.02-6.75,6.75-6.75h25.97c3.73,0,6.75,3.02,6.75,6.75h0Z"/>
      <rect class="cls-1" y="10.58" width="740.82" height="12.58"/>
      <rect class="cls-2" width="740.82" height="12.58"/>
    </g>
  </g>
</svg>