<?xml version="1.0" encoding="UTF-8"?>
<svg id="_레이어_2" data-name="레이어 2" xmlns="http://www.w3.org/2000/svg" viewBox="0 0 199.24 178.13">
  <defs>
    <style>
      .cls-1 {
        fill: #73d2ef;
      }

      .cls-1, .cls-2, .cls-3, .cls-4 {
        stroke-width: 0px;
      }

      .cls-2 {
        fill: #279dc1;
      }

      .cls-3 {
        fill: #2297b2;
      }

      .cls-4 {
        fill: #4dafd6;
      }
    </style>
  </defs>
  <g id="OBJECTS">
    <g>
      <g>
        <g>
          <path class="cls-2" d="m137.97,60.28c0,10.4-8.35,18.84-18.64,18.84H18.64c-10.3,0-18.64-8.44-18.64-18.84V18.84C0,8.43,8.35,0,18.64,0h100.68c10.3,0,18.64,8.43,18.64,18.84v41.44Z"/>
          <path class="cls-4" d="m119.33,0H18.64C8.35,0,0,8.43,0,18.84v20.09c0,10.4,8.35,18.84,18.64,18.84h100.68c10.3,0,18.64-8.43,18.64-18.84v-20.09c0-10.4-8.35-18.84-18.64-18.84Z"/>
          <g>
            <path class="cls-1" d="m29.68,28.88c0,2.08-1.67,3.77-3.73,3.77h-13.36c-2.06,0-3.73-1.69-3.73-3.77h0c0-2.08,1.67-3.77,3.73-3.77h13.36c2.06,0,3.73,1.69,3.73,3.77h0Z"/>
            <path class="cls-1" d="m46.46,46.47c0,2.08-1.67,3.77-3.73,3.77h-13.36c-2.06,0-3.73-1.69-3.73-3.77h0c0-2.08,1.67-3.77,3.73-3.77h13.36c2.06,0,3.73,1.69,3.73,3.77h0Z"/>
            <path class="cls-1" d="m51.27,18.84c0,2.08-1.22,3.77-2.73,3.77h-9.77c-1.51,0-2.73-1.69-2.73-3.77h0c0-2.08,1.22-3.77,2.73-3.77h9.77c1.51,0,2.73,1.69,2.73,3.77h0Z"/>
          </g>
        </g>
        <g>
          <path class="cls-2" d="m199.24,76.47c0,12.47-10,22.57-22.34,22.57h-59.57c-12.34,0-22.34-10.11-22.34-22.57v-17.3c0-12.47,10-22.57,22.34-22.57h59.57c12.34,0,22.34,10.11,22.34,22.57v17.3Z"/>
          <path class="cls-4" d="m117.33,36.6c-12.09,0-21.93,9.7-22.32,21.82.39,12.12,10.23,21.82,22.32,21.82h59.57c12.09,0,21.93-9.7,22.32-21.82-.39-12.12-10.23-21.82-22.32-21.82h-59.57Z"/>
          <path class="cls-1" d="m153.63,61.8c0,2.49-2,4.51-4.47,4.51h-16.01c-2.47,0-4.47-2.02-4.47-4.51h0c0-2.49,2-4.51,4.47-4.51h16.01c2.47,0,4.47,2.02,4.47,4.51h0Z"/>
          <path class="cls-1" d="m133.9,47.88c0,2.49-1.46,4.51-3.27,4.51h-11.71c-1.81,0-3.27-2.02-3.27-4.51h0c0-2.49,1.46-4.51,3.27-4.51h11.71c1.81,0,3.27,2.02,3.27,4.51h0Z"/>
        </g>
      </g>
      <g>
        <path class="cls-2" d="m55.62,119.64c-1.79,1.05-4.09.47-5.14-1.31l-6.77-11.52c-1.04-1.77-.43-4.07,1.36-5.12h0c1.79-1.05,4.09-.47,5.14,1.3l6.77,11.52c1.04,1.77.44,4.07-1.36,5.12h0Z"/>
        <path class="cls-1" d="m48.97,143.02c-1.79,1.06-4.1.47-5.14-1.31l-6.77-11.52c-1.04-1.77-.43-4.07,1.36-5.12h0c1.79-1.05,4.09-.47,5.14,1.31l6.77,11.52c1.04,1.78.44,4.07-1.36,5.12h0Z"/>
        <path class="cls-2" d="m75.22,133.17c-1.79,1.06-3.87.86-4.63-.44l-4.95-8.42c-.76-1.3.07-3.21,1.87-4.26h0c1.79-1.05,3.87-.86,4.63.44l4.95,8.42c.76,1.3-.07,3.21-1.87,4.26h0Z"/>
      </g>
      <g>
        <path class="cls-4" d="m134.3,129.72c-1.6.94-3.8.17-4.91-1.72l-7.21-12.26c-1.11-1.89-.71-4.18.89-5.12h0c1.6-.94,3.8-.17,4.91,1.72l7.21,12.26c1.11,1.89.71,4.18-.89,5.13h0Z"/>
        <path class="cls-4" d="m61.87,177.73c-1.6.94-3.8.17-4.91-1.72l-7.21-12.26c-1.11-1.89-.71-4.18.89-5.13h0c1.6-.94,3.8-.17,4.91,1.72l7.21,12.26c1.11,1.89.71,4.19-.89,5.13h0Z"/>
        <path class="cls-4" d="m79.85,162.43c-1.6.94-3.56.58-4.37-.8l-5.27-8.97c-.81-1.38-.17-3.27,1.43-4.21h0c1.6-.94,3.56-.58,4.37.8l5.27,8.97c.81,1.38.17,3.27-1.43,4.21h0Z"/>
        <path class="cls-4" d="m115.6,165.21c-1.6.94-3.56.59-4.37-.8l-5.27-8.97c-.81-1.38-.17-3.27,1.43-4.21h0c1.6-.94,3.56-.59,4.37.8l5.27,8.97c.81,1.38.17,3.27-1.43,4.21h0Z"/>
        <path class="cls-1" d="m154.07,127.15c-1.6.94-3.56.59-4.37-.8l-5.27-8.97c-.81-1.38-.17-3.27,1.43-4.21h0c1.6-.94,3.56-.58,4.37.8l5.27,8.97c.81,1.38.17,3.27-1.43,4.21h0Z"/>
      </g>
      <g>
        <path class="cls-4" d="m105.29,138.16c-1.79,1.05-4.09.47-5.14-1.31l-6.77-11.52c-1.04-1.77-.43-4.07,1.36-5.12h0c1.79-1.05,4.09-.47,5.14,1.3l6.77,11.52c1.04,1.77.44,4.07-1.36,5.12h0Z"/>
        <path class="cls-1" d="m98.64,161.54c-1.79,1.06-4.1.47-5.14-1.31l-6.77-11.52c-1.04-1.77-.43-4.07,1.36-5.12h0c1.79-1.05,4.09-.47,5.14,1.31l6.77,11.52c1.04,1.78.44,4.07-1.36,5.12h0Z"/>
        <path class="cls-4" d="m124.9,151.69c-1.79,1.05-3.87.86-4.63-.44l-4.95-8.42c-.76-1.3.07-3.21,1.87-4.26h0c1.79-1.05,3.87-.86,4.63.44l4.95,8.42c.76,1.3-.07,3.21-1.87,4.26h0Z"/>
      </g>
      <path class="cls-3" d="m81.65,32.65c0,2.31-1.86,4.19-4.14,4.19h-14.84c-2.29,0-4.14-1.87-4.14-4.19h0c0-2.31,1.85-4.19,4.14-4.19h14.84c2.29,0,4.14,1.87,4.14,4.19h0Z"/>
      <path class="cls-3" d="m113.88,15.07c0,2.31-1.86,4.19-4.14,4.19h-14.84c-2.29,0-4.14-1.87-4.14-4.19h0c0-2.31,1.85-4.19,4.14-4.19h14.84c2.29,0,4.14,1.87,4.14,4.19h0Z"/>
      <path class="cls-3" d="m181.39,50.23c0,2.31-1.86,4.19-4.14,4.19h-14.84c-2.29,0-4.14-1.87-4.14-4.19h0c0-2.31,1.85-4.19,4.14-4.19h14.84c2.29,0,4.14,1.87,4.14,4.19h0Z"/>
    </g>
  </g>
</svg>