<?xml version="1.0" encoding="UTF-8"?>
<svg id="_레이어_2" data-name="레이어 2" xmlns="http://www.w3.org/2000/svg" viewBox="0 0 355.4 71.24">
  <defs>
    <style>
      .cls-1 {
        fill: #279dc1;
      }

      .cls-1, .cls-2, .cls-3, .cls-4, .cls-5 {
        stroke-width: 0px;
      }

      .cls-2 {
        fill: #56331b;
      }

      .cls-3 {
        fill: #7fc62e;
      }

      .cls-4 {
        fill: #4dafd6;
      }

      .cls-5 {
        fill: #7c4d29;
      }
    </style>
  </defs>
  <g id="OBJECTS">
    <g>
      <g>
        <rect class="cls-5" y="22.24" width="355.4" height="48.99"/>
        <path class="cls-2" d="m38.3,36.41c0,3.58-2.9,6.48-6.48,6.48h-13.42c-3.58,0-6.48-2.9-6.48-6.48h0c0-3.58,2.9-6.48,6.48-6.48h13.42c3.58,0,6.48,2.9,6.48,6.48h0Z"/>
        <path class="cls-2" d="m140.88,36.41c0,3.58-2.9,6.48-6.48,6.48h-13.42c-3.58,0-6.48-2.9-6.48-6.48h0c0-3.58,2.9-6.48,6.48-6.48h13.42c3.58,0,6.48,2.9,6.48,6.48h0Z"/>
        <path class="cls-2" d="m167.27,55.31c0,3.58-2.9,6.48-6.48,6.48h-13.42c-3.58,0-6.48-2.9-6.48-6.48h0c0-3.58,2.9-6.49,6.48-6.49h13.42c3.58,0,6.48,2.9,6.48,6.49h0Z"/>
        <path class="cls-2" d="m293.83,55.31c0,3.58-2.9,6.48-6.48,6.48h-13.42c-3.58,0-6.48-2.9-6.48-6.48h0c0-3.58,2.9-6.49,6.48-6.49h13.42c3.58,0,6.48,2.9,6.48,6.49h0Z"/>
        <path class="cls-2" d="m68.95,55.31c0,3.58-2.9,6.48-6.48,6.48h-24.95c-3.58,0-6.48-2.9-6.48-6.48h0c0-3.58,2.9-6.49,6.48-6.49h24.95c3.58,0,6.48,2.9,6.48,6.49h0Z"/>
        <path class="cls-2" d="m340.47,36.41c0,3.58-2.9,6.48-6.48,6.48h-24.95c-3.58,0-6.48-2.9-6.48-6.48h0c0-3.58,2.9-6.48,6.48-6.48h24.95c3.58,0,6.48,2.9,6.48,6.48h0Z"/>
        <path class="cls-2" d="m225.71,42.9c0,3.58-2.9,6.48-6.48,6.48h-24.95c-3.58,0-6.48-2.9-6.48-6.48h0c0-3.58,2.9-6.49,6.48-6.49h24.95c3.58,0,6.48,2.9,6.48,6.49h0Z"/>
        <rect class="cls-2" y="10.16" width="355.4" height="12.08"/>
        <rect class="cls-3" width="355.4" height="12.08"/>
      </g>
      <g>
        <rect class="cls-4" x="53.5" width="248.4" height="49.38"/>
        <rect class="cls-1" x="53.5" width="248.4" height="10.16"/>
        <path class="cls-1" d="m159.68,36.41c0,3.24-2.62,5.86-5.86,5.86h-17.82c-3.24,0-5.86-2.62-5.86-5.86h0c0-3.24,2.62-5.86,5.86-5.86h17.82c3.24,0,5.86,2.62,5.86,5.86h0Z"/>
        <path class="cls-1" d="m291.03,24.69c0,3.24-2.62,5.86-5.86,5.86h-17.82c-3.24,0-5.86-2.62-5.86-5.86h0c0-3.24,2.62-5.86,5.86-5.86h17.82c3.24,0,5.86,2.62,5.86,5.86h0Z"/>
        <path class="cls-1" d="m204.45,22.24c0,3.24-2.62,5.86-5.86,5.86h-17.82c-3.24,0-5.86-2.62-5.86-5.86h0c0-3.24,2.62-5.86,5.86-5.86h17.82c3.24,0,5.86,2.62,5.86,5.86h0Z"/>
        <path class="cls-1" d="m112.77,24.69c0,3.24-2.62,5.86-5.86,5.86h-32.23c-3.24,0-5.86-2.62-5.86-5.86h0c0-3.24,2.62-5.86,5.86-5.86h32.23c3.24,0,5.86,2.62,5.86,5.86h0Z"/>
        <path class="cls-1" d="m244.15,38.09c0,3.24-2.62,5.86-5.86,5.86h-32.23c-3.24,0-5.86-2.62-5.86-5.86h0c0-3.24,2.62-5.86,5.86-5.86h32.23c3.24,0,5.86,2.62,5.86,5.86h0Z"/>
      </g>
    </g>
  </g>
</svg>