<?xml version="1.0" encoding="UTF-8"?>
<svg id="_레이어_2" data-name="레이어 2" xmlns="http://www.w3.org/2000/svg" viewBox="0 0 97.94 97.94">
  <defs>
    <style>
      .cls-1 {
        fill: #ffe236;
      }

      .cls-1, .cls-2 {
        stroke-width: 0px;
      }

      .cls-2 {
        fill: #fff2bd;
      }
    </style>
  </defs>
  <g id="OBJECTS">
    <g>
      <path class="cls-1" d="m97.94,48.97c0,27.04-21.92,48.97-48.97,48.97S0,76.01,0,48.97,21.92,0,48.97,0s48.97,21.92,48.97,48.97Z"/>
      <g>
        <path class="cls-2" d="m37.11,36.03c0,2.08-1.67,3.77-3.73,3.77h-13.36c-2.06,0-3.73-1.69-3.73-3.77h0c0-2.08,1.67-3.77,3.73-3.77h13.36c2.06,0,3.73,1.69,3.73,3.77h0Z"/>
        <path class="cls-2" d="m53.89,53.61c0,2.08-1.67,3.77-3.73,3.77h-13.36c-2.06,0-3.73-1.69-3.73-3.77h0c0-2.08,1.67-3.77,3.73-3.77h13.36c2.06,0,3.73,1.69,3.73,3.77h0Z"/>
        <path class="cls-2" d="m58.71,25.99c0,2.08-1.22,3.77-2.73,3.77h-9.77c-1.51,0-2.73-1.69-2.73-3.77h0c0-2.08,1.22-3.77,2.73-3.77h9.77c1.51,0,2.73,1.69,2.73,3.77h0Z"/>
      </g>
    </g>
  </g>
</svg>