<?xml version="1.0" encoding="UTF-8"?>
<svg id="_레이어_2" data-name="레이어 2" xmlns="http://www.w3.org/2000/svg" viewBox="0 0 121.21 166.91">
  <defs>
    <style>
      .cls-1 {
        opacity: .4;
      }

      .cls-1, .cls-2, .cls-3, .cls-4, .cls-5 {
        stroke-width: 0px;
      }

      .cls-1, .cls-3 {
        fill: #4d8907;
      }

      .cls-2 {
        fill: #65ad18;
      }

      .cls-4 {
        fill: #7c4d29;
      }

      .cls-5 {
        fill: #56331b;
        opacity: .6;
      }
    </style>
  </defs>
  <g id="OBJECTS">
    <g>
      <g>
        <path class="cls-4" d="m76.05,166.91V37.11c0-6.88-5.01-12.45-11.19-12.45h-6.38c-6.18,0-11.19,5.57-11.19,12.45v129.81h28.77Z"/>
        <path class="cls-5" d="m76.05,142.93V35.01c0-5.72-5.01-10.35-11.19-10.35h-6.38c-6.18,0-11.19,4.63-11.19,10.35v107.93h28.77Z"/>
      </g>
      <g>
        <path class="cls-3" d="m25.43,0h70.35C109.82,0,121.21,11.39,121.21,25.43v70.35c0,14.03-11.39,25.43-25.43,25.43H25.43c-14.03,0-25.43-11.39-25.43-25.43V25.43C0,11.39,11.39,0,25.43,0Z"/>
        <path class="cls-2" d="m25.43,0h70.35c14.04,0,25.43,11.39,25.43,25.43v44.92c0,14.04-11.39,25.43-25.43,25.43H25.43c-14.03,0-25.43-11.39-25.43-25.43V25.43C0,11.39,11.39,0,25.43,0Z"/>
        <path class="cls-1" d="m38.78,30.94c0,2.81-2.28,5.09-5.09,5.09H15.47c-2.81,0-5.09-2.28-5.09-5.09h0c0-2.81,2.28-5.09,5.09-5.09h18.22c2.81,0,5.09,2.28,5.09,5.09h0Z"/>
        <path class="cls-1" d="m61.67,54.67c0,2.81-2.28,5.09-5.08,5.09h-18.22c-2.81,0-5.09-2.28-5.09-5.09h0c0-2.81,2.28-5.09,5.09-5.09h18.22c2.81,0,5.08,2.28,5.08,5.09h0Z"/>
        <path class="cls-3" d="m96.84,78.41c0,2.81-2.28,5.08-5.09,5.08h-18.22c-2.81,0-5.09-2.28-5.09-5.08h0c0-2.81,2.28-5.09,5.09-5.09h18.22c2.81,0,5.09,2.28,5.09,5.09h0Z"/>
        <path class="cls-1" d="m68.24,17.38c0,2.81-1.67,5.09-3.72,5.09h-13.33c-2.05,0-3.72-2.28-3.72-5.09h0c0-2.81,1.66-5.09,3.72-5.09h13.33c2.05,0,3.72,2.28,3.72,5.09h0Z"/>
        <path class="cls-1" d="m107.23,41.11c0,2.81-1.66,5.09-3.72,5.09h-13.33c-2.05,0-3.72-2.28-3.72-5.09h0c0-2.81,1.67-5.09,3.72-5.09h13.33c2.05,0,3.72,2.28,3.72,5.09h0Z"/>
      </g>
    </g>
  </g>
</svg>