<?xml version="1.0" encoding="UTF-8"?>
<svg id="_레이어_2" data-name="레이어 2" xmlns="http://www.w3.org/2000/svg" viewBox="0 0 125.89 265.64">
  <defs>
    <style>
      .cls-1 {
        fill: #65ad18;
      }

      .cls-1, .cls-2, .cls-3, .cls-4, .cls-5 {
        stroke-width: 0px;
      }

      .cls-2 {
        fill: #7fc62e;
      }

      .cls-3 {
        fill: #7c4d29;
      }

      .cls-4 {
        fill: #56331b;
        opacity: .6;
      }

      .cls-5 {
        fill: #a5e84d;
      }
    </style>
  </defs>
  <g id="OBJECTS">
    <g>
      <g>
        <path class="cls-3" d="m77.33,265.64V36.83c0-6.88-5.01-12.45-11.19-12.45h-6.38c-6.18,0-11.19,5.57-11.19,12.45v228.81h28.77Z"/>
        <path class="cls-4" d="m77.33,56.59v-21.86c0-5.72-5.01-10.35-11.19-10.35h-6.38c-6.18,0-11.19,4.63-11.19,10.35v21.86h28.77Z"/>
        <rect class="cls-4" x="48.56" y="85.09" width="28.77" height="43.5"/>
        <rect class="cls-4" x="48.56" y="170.59" width="28.77" height="48"/>
      </g>
      <g>
        <path class="cls-1" d="m125.89,191.26c0,9.49-7.62,17.19-17.01,17.19H17.01c-9.4,0-17.01-7.7-17.01-17.19v-37.82c0-9.49,7.62-17.19,17.01-17.19h91.87c9.4,0,17.01,7.7,17.01,17.19v37.82Z"/>
        <path class="cls-2" d="m108.88,136.26H17.01c-9.4,0-17.01,7.7-17.01,17.19v18.33c0,9.49,7.62,17.19,17.01,17.19h91.87c9.4,0,17.01-7.7,17.01-17.19v-18.33c0-9.49-7.62-17.19-17.01-17.19Z"/>
        <path class="cls-5" d="m27.08,162.62c0,1.9-1.52,3.44-3.4,3.44h-12.19c-1.88,0-3.4-1.54-3.4-3.44h0c0-1.9,1.52-3.44,3.4-3.44h12.19c1.88,0,3.4,1.54,3.4,3.44h0Z"/>
        <path class="cls-5" d="m42.39,178.66c0,1.9-1.52,3.44-3.4,3.44h-12.19c-1.88,0-3.4-1.54-3.4-3.44h0c0-1.9,1.52-3.44,3.4-3.44h12.19c1.88,0,3.4,1.54,3.4,3.44h0Z"/>
        <path class="cls-1" d="m88.96,166.06c0,1.9-1.52,3.44-3.4,3.44h-12.19c-1.88,0-3.4-1.54-3.4-3.44h0c0-1.9,1.52-3.44,3.4-3.44h12.19c1.88,0,3.4,1.54,3.4,3.44h0Z"/>
        <path class="cls-1" d="m116.32,169.49c0,1.9-.97,3.44-2.16,3.44h-7.73c-1.19,0-2.16-1.54-2.16-3.44h0c0-1.9.97-3.44,2.16-3.44h7.73c1.19,0,2.16,1.54,2.16,3.44h0Z"/>
        <path class="cls-5" d="m46.78,153.45c0,1.9-1.11,3.44-2.49,3.44h-8.92c-1.37,0-2.49-1.54-2.49-3.44h0c0-1.9,1.11-3.44,2.49-3.44h8.92c1.37,0,2.49,1.54,2.49,3.44h0Z"/>
      </g>
      <g>
        <path class="cls-1" d="m115.54,103.3c0,9.49-7.62,17.19-17.01,17.19H27.36c-9.4,0-17.01-7.7-17.01-17.19v-22.35c0-9.49,7.62-17.19,17.01-17.19h71.17c9.4,0,17.01,7.7,17.01,17.19v22.35Z"/>
        <path class="cls-2" d="m98.53,63.77H27.36c-9.4,0-17.01,7.7-17.01,17.19v2.86c0,9.49,7.62,17.19,17.01,17.19h71.17c9.4,0,17.01-7.7,17.01-17.19v-2.86c0-9.49-7.62-17.19-17.01-17.19Z"/>
        <path class="cls-5" d="m41.5,82.67c0,1.9-1.52,3.44-3.4,3.44h-12.19c-1.88,0-3.4-1.54-3.4-3.44h0c0-1.9,1.52-3.44,3.4-3.44h12.19c1.88,0,3.4,1.54,3.4,3.44h0Z"/>
        <path class="cls-1" d="m103.39,86.11c0,1.9-1.52,3.44-3.4,3.44h-12.19c-1.88,0-3.4-1.54-3.4-3.44h0c0-1.9,1.52-3.44,3.4-3.44h12.19c1.88,0,3.4,1.54,3.4,3.44h0Z"/>
        <path class="cls-5" d="m61.21,73.51c0,1.9-1.12,3.44-2.49,3.44h-8.92c-1.37,0-2.49-1.54-2.49-3.44h0c0-1.9,1.11-3.44,2.49-3.44h8.92c1.37,0,2.49,1.54,2.49,3.44h0Z"/>
      </g>
      <g>
        <path class="cls-1" d="m102.64,30.37c0,9.49-7.62,17.19-17.01,17.19h-45.37c-9.4,0-17.01-7.7-17.01-17.19v-13.18C23.25,7.7,30.87,0,40.26,0h45.37c9.4,0,17.01,7.7,17.01,17.19v13.18Z"/>
        <path class="cls-2" d="m40.26,0c-9.21,0-16.7,7.39-17,16.62.3,9.23,7.79,16.62,17,16.62h45.37c9.21,0,16.7-7.39,17-16.62-.3-9.23-7.79-16.62-17-16.62h-45.37Z"/>
        <path class="cls-5" d="m67.91,19.19c0,1.9-1.52,3.44-3.4,3.44h-12.19c-1.88,0-3.4-1.54-3.4-3.44h0c0-1.9,1.52-3.44,3.4-3.44h12.19c1.88,0,3.4,1.54,3.4,3.44h0Z"/>
        <path class="cls-5" d="m52.88,8.59c0,1.9-1.11,3.44-2.49,3.44h-8.92c-1.37,0-2.49-1.54-2.49-3.44h0c0-1.9,1.12-3.44,2.49-3.44h8.92c1.37,0,2.49,1.54,2.49,3.44h0Z"/>
      </g>
    </g>
  </g>
</svg>