<?xml version="1.0" encoding="UTF-8"?>
<svg id="_레이어_2" data-name="레이어 2" xmlns="http://www.w3.org/2000/svg" viewBox="0 0 143.52 218.06">
  <defs>
    <style>
      .cls-1 {
        opacity: .4;
      }

      .cls-1, .cls-2, .cls-3, .cls-4, .cls-5, .cls-6 {
        stroke-width: 0px;
      }

      .cls-1, .cls-4 {
        fill: #4d8907;
      }

      .cls-7, .cls-6 {
        opacity: .6;
      }

      .cls-2, .cls-6 {
        fill: #56331b;
      }

      .cls-3 {
        fill: #65ad18;
      }

      .cls-5 {
        fill: #7c4d29;
      }
    </style>
  </defs>
  <g id="OBJECTS">
    <g>
      <g>
        <path class="cls-5" d="m109.9,218.06v-122.26c0-6.48-5.25-11.73-11.73-11.73h-6.68c-6.48,0-11.73,5.25-11.73,11.73v122.26h30.14Z"/>
        <path class="cls-5" d="m101.24,141.73h-47.64V61.59c0-4.03-3.27-7.3-7.29-7.3s-7.3,3.27-7.3,7.3v87.43c0,3.4,2.33,6.24,5.47,7.06.58.15,1.19.24,1.83.24h54.94v-14.59Z"/>
      </g>
      <g class="cls-7">
        <path class="cls-2" d="m109.9,118.93v-23.13c0-6.48-5.25-11.73-11.73-11.73h-6.68c-6.48,0-11.73,5.25-11.73,11.73v23.13h30.14Z"/>
        <path class="cls-2" d="m53.6,133.65V61.59c0-4.03-3.27-7.3-7.29-7.3s-7.3,3.27-7.3,7.3v72.06h14.59Z"/>
      </g>
      <g>
        <g>
          <path class="cls-4" d="m59.77,0h61.52c12.27,0,22.23,9.96,22.23,22.23v61.52c0,12.27-9.96,22.23-22.23,22.23h-61.52c-12.27,0-22.23-9.96-22.23-22.23V22.23C37.53,9.96,47.5,0,59.77,0Z"/>
          <path class="cls-1" d="m71.44,27.05c0,2.45-1.99,4.45-4.45,4.45h-15.93c-2.46,0-4.45-1.99-4.45-4.45h0c0-2.46,1.99-4.45,4.45-4.45h15.93c2.46,0,4.45,1.99,4.45,4.45h0Z"/>
          <path class="cls-3" d="m121.29,0h-61.52c-12.28,0-22.23,9.96-22.23,22.23v5.57h36.23c12.28,0,22.23,9.96,22.23,22.23v33.71h25.28c12.28,0,22.23-9.96,22.23-22.23V22.23c0-12.28-9.96-22.23-22.23-22.23Z"/>
          <path class="cls-1" d="m91.45,47.8c0,2.46-1.99,4.45-4.45,4.45h-15.94c-2.46,0-4.45-1.99-4.45-4.45h0c0-2.46,1.99-4.45,4.45-4.45h15.94c2.46,0,4.45,1.99,4.45,4.45h0Z"/>
          <path class="cls-4" d="m122.21,68.56c0,2.45-1.99,4.45-4.45,4.45h-15.93c-2.46,0-4.45-1.99-4.45-4.45h0c0-2.46,1.99-4.45,4.45-4.45h15.93c2.46,0,4.45,1.99,4.45,4.45h0Z"/>
          <path class="cls-1" d="m97.2,15.19c0,2.46-1.46,4.45-3.25,4.45h-11.65c-1.8,0-3.25-1.99-3.25-4.45h0c0-2.46,1.46-4.45,3.25-4.45h11.65c1.8,0,3.25,1.99,3.25,4.45h0Z"/>
          <path class="cls-1" d="m131.29,35.95c0,2.46-1.46,4.45-3.25,4.45h-11.65c-1.8,0-3.25-1.99-3.25-4.45h0c0-2.46,1.46-4.45,3.25-4.45h11.65c1.8,0,3.25,1.99,3.25,4.45h0Z"/>
        </g>
        <g>
          <path class="cls-4" d="m17.62,39.56h48.74c9.72,0,17.62,7.89,17.62,17.62v48.74c0,9.72-7.89,17.62-17.62,17.62H17.62c-9.72,0-17.62-7.89-17.62-17.62v-48.74c0-9.72,7.89-17.62,17.62-17.62Z"/>
          <rect class="cls-3" y="39.56" width="83.97" height="66.35" rx="17.62" ry="17.62"/>
          <path class="cls-1" d="m26.86,61c0,1.95-1.58,3.52-3.52,3.52h-12.62c-1.95,0-3.52-1.58-3.52-3.52h0c0-1.95,1.58-3.52,3.52-3.52h12.62c1.95,0,3.52,1.58,3.52,3.52h0Z"/>
          <path class="cls-1" d="m42.72,77.44c0,1.94-1.58,3.52-3.52,3.52h-12.62c-1.95,0-3.52-1.58-3.52-3.52h0c0-1.95,1.58-3.52,3.52-3.52h12.62c1.94,0,3.52,1.58,3.52,3.52h0Z"/>
          <path class="cls-4" d="m67.09,93.88c0,1.94-1.58,3.52-3.52,3.52h-12.62c-1.95,0-3.52-1.58-3.52-3.52h0c0-1.95,1.58-3.52,3.52-3.52h12.62c1.95,0,3.52,1.58,3.52,3.52h0Z"/>
          <path class="cls-1" d="m47.27,51.6c0,1.95-1.15,3.52-2.58,3.52h-9.23c-1.42,0-2.58-1.58-2.58-3.52h0c0-1.95,1.15-3.52,2.58-3.52h9.23c1.42,0,2.58,1.58,2.58,3.52h0Z"/>
          <path class="cls-1" d="m74.28,68.04c0,1.94-1.15,3.52-2.58,3.52h-9.23c-1.42,0-2.58-1.58-2.58-3.52h0c0-1.95,1.15-3.52,2.58-3.52h9.23c1.42,0,2.58,1.58,2.58,3.52h0Z"/>
        </g>
      </g>
      <path class="cls-6" d="m105.41,143.4c0,2.22-1.8,4.01-4.01,4.01h0c-2.22,0-4.02-1.8-4.02-4.01v-12.26c0-2.22,1.8-4.01,4.02-4.01h0c2.22,0,4.01,1.8,4.01,4.01v12.26Z"/>
      <path class="cls-6" d="m105.41,168.99c0,2.22-1.8,4.01-4.01,4.01h0c-2.22,0-4.02-1.8-4.02-4.01v-12.26c0-2.22,1.8-4.02,4.02-4.02h0c2.22,0,4.01,1.8,4.01,4.02v12.26Z"/>
      <path class="cls-6" d="m92.13,205.57c0,2.22-1.8,4.01-4.01,4.01h0c-2.22,0-4.01-1.8-4.01-4.01v-12.26c0-2.22,1.8-4.01,4.01-4.01h0c2.22,0,4.01,1.8,4.01,4.01v12.26Z"/>
    </g>
  </g>
</svg>