<?xml version="1.0" encoding="UTF-8"?>
<svg id="_레이어_2" data-name="레이어 2" xmlns="http://www.w3.org/2000/svg" viewBox="0 0 102.5 230.29">
  <defs>
    <style>
      .cls-1 {
        fill: #65ad18;
      }

      .cls-1, .cls-2, .cls-3, .cls-4, .cls-5 {
        stroke-width: 0px;
      }

      .cls-2 {
        fill: #7fc62e;
      }

      .cls-3 {
        fill: #7c4d29;
      }

      .cls-4 {
        fill: #56331b;
        opacity: .6;
      }

      .cls-5 {
        fill: #a5e84d;
      }
    </style>
  </defs>
  <g id="OBJECTS">
    <g>
      <g>
        <path class="cls-3" d="m65.64,230.29V100.49c0-6.88-5.01-12.45-11.19-12.45h-6.38c-6.18,0-11.19,5.57-11.19,12.45v129.81h28.77Z"/>
        <path class="cls-4" d="m65.64,192.14v-94.99c0-5.03-5.01-9.11-11.19-9.11h-6.38c-6.18,0-11.19,4.08-11.19,9.11v94.99h28.77Z"/>
      </g>
      <g>
        <path class="cls-1" d="m21.81,0h58.88c12.04,0,21.81,9.77,21.81,21.81v129.4c0,12.04-9.77,21.81-21.81,21.81H21.81C9.77,173.02,0,163.25,0,151.21V21.81C0,9.77,9.77,0,21.81,0Z"/>
        <path class="cls-2" d="m21.81,0h58.88c12.04,0,21.81,9.77,21.81,21.81v91.6c0,12.04-9.77,21.81-21.81,21.81H21.81c-12.04,0-21.81-9.77-21.81-21.81V21.81C0,9.77,9.77,0,21.81,0Z"/>
        <path class="cls-5" d="m40.53,47.25c0,2.41-1.95,4.36-4.36,4.36h-15.63c-2.41,0-4.36-1.95-4.36-4.36h0c0-2.41,1.95-4.36,4.36-4.36h15.63c2.41,0,4.36,1.95,4.36,4.36h0Z"/>
        <path class="cls-5" d="m60.16,67.61c0,2.41-1.95,4.36-4.36,4.36h-15.63c-2.41,0-4.36-1.95-4.36-4.36h0c0-2.41,1.95-4.36,4.36-4.36h15.63c2.41,0,4.36,1.95,4.36,4.36h0Z"/>
        <path class="cls-1" d="m40.53,116.31c0,2.41-1.95,4.36-4.36,4.36h-15.63c-2.41,0-4.36-1.95-4.36-4.36h0c0-2.41,1.95-4.36,4.36-4.36h15.63c2.41,0,4.36,1.95,4.36,4.36h0Z"/>
        <path class="cls-1" d="m75.6,120.68c0,2.41-1.24,4.36-2.77,4.36h-9.91c-1.53,0-2.77-1.95-2.77-4.36h0c0-2.41,1.24-4.36,2.77-4.36h9.91c1.53,0,2.77,1.95,2.77,4.36h0Z"/>
        <path class="cls-5" d="m65.79,35.62c0,2.41-1.43,4.36-3.19,4.36h-11.43c-1.76,0-3.19-1.95-3.19-4.36h0c0-2.41,1.43-4.36,3.19-4.36h11.43c1.76,0,3.19,1.95,3.19,4.36h0Z"/>
      </g>
    </g>
  </g>
</svg>