<?xml version="1.0" encoding="UTF-8"?>
<svg id="_레이어_2" data-name="레이어 2" xmlns="http://www.w3.org/2000/svg" viewBox="0 0 138.65 232.48">
  <defs>
    <style>
      .cls-1 {
        fill: #65ad18;
      }

      .cls-1, .cls-2, .cls-3, .cls-4, .cls-5 {
        stroke-width: 0px;
      }

      .cls-2 {
        fill: #7fc62e;
      }

      .cls-3 {
        fill: #7c4d29;
      }

      .cls-4 {
        fill: #56331b;
        opacity: .6;
      }

      .cls-5 {
        fill: #a5e84d;
      }
    </style>
  </defs>
  <g id="OBJECTS">
    <g>
      <g>
        <path class="cls-3" d="m83.71,232.48V102.67c0-6.88-5.01-12.45-11.19-12.45h-6.38c-6.18,0-11.19,5.57-11.19,12.45v129.81h28.77Z"/>
        <path class="cls-4" d="m83.71,208.5v-107.93c0-5.72-5.01-10.35-11.19-10.35h-6.38c-6.18,0-11.19,4.63-11.19,10.35v107.93h28.77Z"/>
      </g>
      <g>
        <path class="cls-1" d="m138.65,175.65c0,10.46-8.39,18.93-18.74,18.93H18.74c-10.35,0-18.74-8.48-18.74-18.93v-41.65c0-10.46,8.39-18.93,18.74-18.93h101.18c10.35,0,18.74,8.47,18.74,18.93v41.65Z"/>
        <path class="cls-2" d="m119.92,115.07H18.74c-10.35,0-18.74,8.47-18.74,18.93v20.19c0,10.46,8.39,18.93,18.74,18.93h101.18c10.35,0,18.74-8.48,18.74-18.93v-20.19c0-10.46-8.39-18.93-18.74-18.93Z"/>
        <path class="cls-5" d="m29.82,144.1c0,2.09-1.68,3.79-3.75,3.79h-13.43c-2.07,0-3.75-1.7-3.75-3.79h0c0-2.09,1.68-3.79,3.75-3.79h13.43c2.07,0,3.75,1.7,3.75,3.79h0Z"/>
        <path class="cls-5" d="m46.69,161.77c0,2.09-1.68,3.79-3.75,3.79h-13.43c-2.07,0-3.75-1.7-3.75-3.79h0c0-2.09,1.68-3.79,3.75-3.79h13.43c2.07,0,3.75,1.7,3.75,3.79h0Z"/>
        <path class="cls-1" d="m97.98,147.89c0,2.09-1.68,3.79-3.75,3.79h-13.43c-2.07,0-3.75-1.7-3.75-3.79h0c0-2.09,1.68-3.79,3.75-3.79h13.43c2.07,0,3.75,1.7,3.75,3.79h0Z"/>
        <path class="cls-1" d="m128.12,151.67c0,2.09-1.07,3.79-2.38,3.79h-8.52c-1.31,0-2.38-1.69-2.38-3.79h0c0-2.09,1.06-3.79,2.38-3.79h8.52c1.31,0,2.38,1.7,2.38,3.79h0Z"/>
        <path class="cls-5" d="m51.53,134c0,2.09-1.23,3.79-2.74,3.79h-9.82c-1.51,0-2.74-1.7-2.74-3.79h0c0-2.09,1.23-3.79,2.74-3.79h9.82c1.51,0,2.74,1.7,2.74,3.79h0Z"/>
      </g>
      <g>
        <path class="cls-1" d="m127.26,95.77c0,10.46-8.39,18.93-18.74,18.93H30.14c-10.35,0-18.74-8.48-18.74-18.93v-24.61c0-10.46,8.39-18.93,18.74-18.93h78.38c10.35,0,18.74,8.48,18.74,18.93v24.61Z"/>
        <path class="cls-2" d="m108.52,52.23H30.14c-10.35,0-18.74,8.48-18.74,18.93v3.16c0,10.46,8.39,18.93,18.74,18.93h78.38c10.35,0,18.74-8.48,18.74-18.93v-3.16c0-10.46-8.39-18.93-18.74-18.93Z"/>
        <path class="cls-5" d="m45.71,73.05c0,2.09-1.68,3.79-3.75,3.79h-13.43c-2.07,0-3.75-1.7-3.75-3.79h0c0-2.09,1.68-3.79,3.75-3.79h13.43c2.07,0,3.75,1.7,3.75,3.79h0Z"/>
        <path class="cls-1" d="m113.87,76.84c0,2.09-1.68,3.79-3.75,3.79h-13.43c-2.07,0-3.75-1.69-3.75-3.79h0c0-2.09,1.68-3.79,3.75-3.79h13.43c2.07,0,3.75,1.7,3.75,3.79h0Z"/>
        <path class="cls-5" d="m67.41,62.96c0,2.09-1.23,3.79-2.74,3.79h-9.82c-1.51,0-2.74-1.7-2.74-3.79h0c0-2.09,1.23-3.79,2.74-3.79h9.82c1.51,0,2.74,1.7,2.74,3.79h0Z"/>
      </g>
      <g>
        <path class="cls-1" d="m113.05,33.44c0,10.45-8.39,18.93-18.74,18.93h-49.97c-10.35,0-18.74-8.48-18.74-18.93v-14.51C25.61,8.48,34,0,44.34,0h49.97c10.35,0,18.74,8.48,18.74,18.93v14.51Z"/>
        <path class="cls-2" d="m44.34,0c-10.14,0-18.39,8.14-18.72,18.3.33,10.16,8.58,18.3,18.72,18.3h49.97c10.14,0,18.39-8.14,18.72-18.3-.33-10.16-8.58-18.3-18.72-18.3h-49.97Z"/>
        <path class="cls-5" d="m74.79,21.14c0,2.09-1.68,3.79-3.75,3.79h-13.43c-2.07,0-3.75-1.7-3.75-3.79h0c0-2.09,1.68-3.79,3.75-3.79h13.43c2.07,0,3.75,1.69,3.75,3.79h0Z"/>
        <path class="cls-5" d="m58.24,9.47c0,2.09-1.23,3.79-2.74,3.79h-9.82c-1.51,0-2.74-1.7-2.74-3.79h0c0-2.09,1.23-3.79,2.74-3.79h9.82c1.51,0,2.74,1.7,2.74,3.79h0Z"/>
      </g>
    </g>
  </g>
</svg>