<?xml version="1.0" encoding="UTF-8"?>
<svg id="_레이어_2" data-name="레이어 2" xmlns="http://www.w3.org/2000/svg" viewBox="0 0 475.34 425.04">
  <defs>
    <style>
      .cls-1 {
        opacity: .9;
      }

      .cls-1, .cls-2 {
        fill: #4f46e5;
        stroke-width: 0px;
      }
    </style>
  </defs>
  <g id="_레이어_1-2" data-name=" 레이어 1">
    <path class="cls-1" d="m62.12,27.56L129.49,2.63c2.29-.85,4.83.32,5.68,2.61l124.77,337.12c4.99,13.49-1.91,28.49-15.39,33.49l-53.12,19.66c-3.01,1.11-6.35-.43-7.47-3.43L54.88,43.31c-2.35-6.35.89-13.4,7.24-15.75Z"/>
    <path class="cls-2" d="m120.99.58l10.06,1.26c2.73.34,4.67,2.83,4.33,5.57l-48.69,388.73c-2.26,18.07-18.78,30.91-36.85,28.64l-10.47-1.31c-24.63-3.08-42.11-25.58-39.02-50.2L39.06,64.27C44.08,24.08,80.8-4.46,120.99.58Z"/>
    <path class="cls-1" d="m236.05,128.8l56.18-32.43c4.79-2.76,10.92-1.12,13.69,3.67l131.01,226.92c7.54,13.07,3.06,29.8-10.01,37.35l-49.61,28.64c-1.86,1.07-4.24.44-5.31-1.42l-140.93-244.11c-3.76-6.5-1.52-14.84,4.98-18.59h0Z"/>
    <path class="cls-2" d="m383.27,397.51l-3.57-.33c-4.71-.43-8.18-4.6-7.75-9.3l14.29-156.68c2.43-26.68,26.07-46.36,52.75-43.93h0c21.97,2,38.18,21.47,36.18,43.43l-8.91,97.67c-3.83,41.98-41.01,72.95-82.99,69.12h0Z"/>
    <path class="cls-2" d="m296.84,94.74l1.17.11c2.68.24,4.66,2.62,4.42,5.3l-20.04,219.79c-4.25,46.65-45.58,81.07-92.23,76.81l-1.17-.11c-2.68-.24-4.66-2.62-4.42-5.3l20.04-219.79c4.25-46.65,45.58-81.07,92.23-76.81h0Z"/>
  </g>
</svg>